<svg width="80" height="80" xmlns="http://www.w3.org/2000/svg"><path d="M50.071 55.787h8.635L44.922 20.015h-9.547L21.592 55.787h8.635l2.253-6.06h13.023l-2.358-6.704H34.57L40.15 27.63l9.922 28.156zm28.473-26.484a2.078 2.078 0 00-4.004 1.111A35.827 35.827 0 0175.845 40c0 19.765-16.08 35.845-35.845 35.845S4.155 59.765 4.155 40 20.235 4.155 40 4.155c8.373 0 16.475 2.974 22.869 8.268a4.999 4.999 0 103.088-2.832C58.757 3.455 49.536 0 40 0 17.944 0 0 17.944 0 40s17.944 40 40 40 40-17.944 40-40c0-3.616-.49-7.215-1.456-10.697z" fill="#112B49" fill-rule="nonzero"/></svg>