<svg fill="none" xmlns="http://www.w3.org/2000/svg" viewBox="0 0 539 478">
  <path d="M393.33 330.375h-36.841l-90.788-35.525s-64.473-26.316-59.21 23.683c5.263 50 14.474 117.103 14.474 117.103s28.947-13.157 44.736-9.21c15.789 3.947 5.263-80.262 5.263-80.262s128.945 61.841 140.787 53.947c11.842-7.895 14.473-63.157 14.473-63.157l-32.894-6.579z" fill="#111"/>
  <path opacity=".1" d="M393.33 330.375h-36.841l-90.788-35.525s-64.473-26.316-59.21 23.683c5.263 50 14.474 117.103 14.474 117.103s28.947-13.157 44.736-9.21c15.789 3.947 5.263-80.262 5.263-80.262s128.945 61.841 140.787 53.947c11.842-7.895 14.473-63.157 14.473-63.157l-32.894-6.579z" fill="#222"/>
  <path d="M335.285 215.001l-44.586 64.06-103.945 86.84s-96.0495 22.368-82.893 38.157c13.157 15.79 93.419-15.79 93.419-15.79s119.735-86.84 123.682-93.418c3.947-6.58 47.367-68.42 47.367-68.42l-33.044-11.429z" fill="#B88777"/>
  <path opacity=".1" d="M335.285 215.001l-44.586 64.06-103.945 86.84s-96.0495 22.368-82.893 38.157c13.157 15.79 93.419-15.79 93.419-15.79s119.735-86.84 123.682-93.418c3.947-6.58 47.367-68.42 47.367-68.42l-33.044-11.429z" fill="#000"/>
  <path d="M361.752 163.273l-28.947 56.578s6.579 27.631 17.105 30.263c10.526 2.631 55.262-34.21 55.262-34.21l-43.42-52.63v-.001z" fill="#333"/>
  <path opacity=".1" d="M361.752 163.273l-28.947 56.578s6.579 27.631 17.105 30.263c10.526 2.631 55.262-34.21 55.262-34.21l-43.42-52.63v-.001z" fill="#333"/>
  <path d="M8.61254 301.081L.0625534 336.353c-.096.393-.0810078.805.0419926 1.19L38.8925 458.755c.1537.48.4673.893.8884 1.169.4212.277.9245.401 1.426.352.5015-.05.9709-.27 1.3299-.624.359-.353.5858-.819.6427-1.32l5.366-47.22c.0353-.313.0029-.63-.095-.93l-35.602-109.264c-.1484-.456-.4415-.851-.8348-1.126-.3934-.274-.8656-.412-1.3448-.394-.4792.019-.93931.193-1.31045.497-.37114.303-.63302.72-.74591 1.186z" fill="#111"/>
  <path d="M11.7575 304.06l-7.89397 30.263L38.0735 444.847l7.894-34.21-34.21-106.577z" fill="#F2F2F2"/>
  <path d="M184.123 468.531c-1.316 3.947-136.8395-1.316-138.1555-2.632-1.147-1.648-2.117-3.412-2.894-5.263-1.237-2.632-2.369-5.263-2.369-5.263l5.263-42.605 134.2075-4.763s3.355 36.105 4.04 52.631c.17 4.171.17 7.105-.093 7.895h.001z" fill="#111"/>
  <path opacity=".1" d="M63.0725 418.532l-2.631 36.841H119.65v-36.841H63.0725zm76.3135 11.841l-.353-.07 1.669 15.86h32.894v-15.79h-34.21zm44.737 38.158c-1.316 3.947-136.8395-1.316-138.1555-2.632-1.147-1.648-2.117-3.412-2.894-5.263H184.215c.17 4.171.17 7.105-.093 7.895h.001z" fill="#000"/>
  <path d="M324.093 151.491c-.821 0-5.653-.854-7.469-2.24-.709-.54-3.958-5.622-8.34-14.86-1.37-2.888-3.593-8.112-6.67-15.67-3.067 1.682-5.655 1.682-7.767 0-3.167-2.523-.815-6.299 0-9.226.815-2.928.815-3.923.948-5.362.856-9.2599-5.67-12.9059-6.41-19.9319-3.426-32.51 20.929-57.767 53.63-57.767 32.7 0 59.209 26.509 59.209 59.21 0 27.3769-42.792 49.9229-63.811 62.1869-3.593 2.097-10.7 3.66-13.32 3.66z" fill="#B88777"/>
  <path d="M345.961 138.274s19.737 34.21 23.684 52.63c3.947 18.421 59.21-36.841 59.21-36.841l7.236-19.079s-51.972-24.341-48.025-44.0779c3.947-19.736-42.105 47.3679-42.105 47.3679zm-10.526 102.629l-53.946 71.052-128.945 96.05s-93.4196 19.737-72.3666 34.21c21.0516 14.474 81.5766-13.157 81.5766-13.157s130.261-69.736 157.892-98.683c27.631-28.946 78.946-77.63 78.946-77.63l-63.157-11.842z" fill="#B88777"/>
  <path d="M407.803 351.427l-15.79 25-94.231-29.646c-20.676-6.504-43.348-4.111-61.687 7.443-16.447 10.361-26.973 26.808-3.29 51.15 47.368 48.683 78.947 22.368 78.947 22.368s159.207 74.998 185.521 38.157c26.316-36.841 27.631-55.262 27.631-55.262s-101.314-63.157-117.103-59.21h.002z" fill="#222"/>
  <path d="M210.577 431.842s-42.105 27.631 7.894 40.789c50 13.157 86.84-5.263 86.84-5.263s43.42 0 43.42-22.368-14.472-25-14.472-25l-44.736 6.579s-53.947-14.473-78.946 5.263z" fill="#111"/>
  <path d="M290.505 63.8577c-3.097-1.411 8.98-31.621 10.791-34.423 3.795-5.867 10.16-12.003 19.204-16.646 4.602-2.363 17.918-7.86 23.13-7.788h18.342c4.92.071 11.726.745 16.435 2.17 9.784 2.957 15.862 8.065 22.387 15.934 4.88 5.886 9.775 11.834 13.438 18.546 5.252 9.7958 7.908 20.7737 7.714 31.887.041 2.85-.327 5.692-1.092 8.438-.895 2.5182-2.005 4.9551-3.317 7.284-5.7 11.1963-9.085 25.1823-2.665 35.9823-11.152-4.555-22.186-10.528-29.542-20.067-3.291-4.268-5.872-9.2643-10.258-12.3953-4.386-3.132-11.532-3.403-14.346 1.193-.967 1.8592-1.464 3.9265-1.45 6.022-.206 3.4503-7.294 6.4723-9.573 4.0733-4.048-4.2623-4.488-7.2603-10.546-8.5443-6.064-1.285-9.684 1.377-13.99 0-5.015-1.605-4.76-7.915-6.905-12.725-1.63-3.656.775-22.515-9.841-18.941-10.617 3.573-14.819 1.41-17.916 0z" fill="#221F1F"/>
  <path d="M440.791 128.743c-2.663-.711-5.467-.704-8.128.02-8.446 2.268-27.38 8.271-31.44 17.405-5.263 11.842-23.683 30.263-23.683 30.263s-25 25-19.737 42.104c5.263 17.105 25 36.842 25 36.842s-5.263 81.577 21.052 102.63c26.315 21.052 36.841 6.578 36.841 26.315 0 19.736 81.578 81.577 97.367 43.42 0 0-7.895-71.051-5.263-96.05 2.594-24.64-1.203-178.366-92.009-202.949z" fill="#333"/>
  <path d="M398.592 161.957s-80.262 59.21-65.788 84.21c0 0 48.683 23.683 59.21 22.367 10.525-1.315 51.314-47.367 61.84-51.314 10.526-3.948 15.79-74.999-55.262-55.263z" fill="#333"/>
  <path d="M441.169 11.307c-3.87-10.632992-10.548-13.738-22.368-9.436-11.82 4.302-23.463 18.012-19.593 28.645 1.053 2.894 3.13 4.875 5.835 6.14.887 1.165 2.64 2.696 5.007 4.395 1.083 1.368 2.594 2.983 4.429 4.727.811 2.2799 1.683 4.5374 2.615 6.77l.373.887.174.407c4.809 11.236 10.081 19.683 11.84 18.936 1.002-.425.648-3.749-.72-8.616 2.111 2.693 3.887 4.113 4.85 3.643 1.163-.567.884-3.76-.493-8.253 3.125 1.64 5.347 2.275 5.937 1.52.777-.995-1.477-4.16-5.499-8.083 2.946.87 4.936 1.013 5.35.233.85-1.599-5.212-6.51-13.797-11.28-.834-1.4056-1.725-2.7771-2.671-4.111 3.461-.5825 6.861-1.4765 10.16-2.671 11.82-4.302 12.441-13.22 8.57-23.852l.001-.001zM379.392 86.49c-4.102-8.387-8.707-14.151-10.76-13.237-2.08.925 2.113 8.946 7.017 17.35l1.368 2.327c5.447 9.194 5.207 16.962 7.477 15.951.578-.257.898-1.02.982-2.175 2.663 5.792 5.447 9.448 7.113 8.907.657-.214 1.071-1.059 1.255-2.388.747 4.452 1.961 7.314 3.379 7.34.882.015 1.723-1.07 2.45-2.958 1.859 5.443 3.998 8.915 5.61 8.602 1.134-.22 1.809-2.272 2-5.466 3.499 4.483 6.617 7.027 8.03 6.211 1.662-.959.478-6.286-2.626-12.958 2.488 1.525 4.375 2.078 5.175 1.332 1.768-1.649-2.425-9.039-9.419-16.692l-.589-.638c-2.086-2.237-4.18-4.244-6.149-5.93-.645-6.214-2.072-10.468-3.802-10.498-1.234-.022-2.39 2.112-3.263 5.585-1.592-.741-2.783-.903-3.376-.35-1.008.94-.08 3.743 2.198 7.396-.2 1.9712-.327 3.9493-.38 5.93l-.018.857c-.018 1.03-.018 2.04 0 3.026-.52-2.563-1.265-5.396-2.221-8.338l-.136-.413c-3.317-10.035-7.838-17.5-10.17-16.742-1.36.442-1.678 3.585-1.07 8.125l-.075-.156z" fill="#221F1F"/>
  <path d="M410.627 42.018c-1.358.95-5.411-2.496-9.054-7.7l-.397-.576c-3.379-4.99-5.049-9.649-3.742-10.564 1.358-.95 5.411 2.497 9.054 7.7l.397.576c3.379 4.99 5.049 9.65 3.742 10.564z" fill="#000"/>
</svg>
