<svg width="925" height="669" xmlns="http://www.w3.org/2000/svg"><g fill="none" fill-rule="evenodd"><g fill-rule="nonzero"><path d="M144.734 514.808h36.841l90.788-35.525s64.473-26.316 59.21 23.683c-5.263 50-14.474 117.103-14.474 117.103s-28.947-13.157-44.736-9.21c-15.789 3.947-5.263-80.262-5.263-80.262s-128.945 61.841-140.787 53.947c-11.842-7.895-14.473-63.157-14.473-63.157l32.894-6.579z" fill="#111"/><path d="M144.734 514.808h36.841l90.788-35.525s64.473-26.316 59.21 23.683c-5.263 50-14.474 117.103-14.474 117.103s-28.947-13.157-44.736-9.21c-15.789 3.947-5.263-80.262-5.263-80.262s-128.945 61.841-140.787 53.947c-11.842-7.895-14.473-63.157-14.473-63.157l32.894-6.579z" fill="#222" opacity=".1"/><path d="M202.778 399.434l44.586 64.06 103.945 86.84s96.05 22.368 82.893 38.157c-13.157 15.79-93.419-15.79-93.419-15.79s-119.735-86.84-123.682-93.418c-3.947-6.58-47.367-68.42-47.367-68.42l33.044-11.429z" fill="#B88777"/><path d="M202.778 399.434l44.586 64.06 103.945 86.84s96.05 22.368 82.893 38.157c-13.157 15.79-93.419-15.79-93.419-15.79s-119.735-86.84-123.682-93.418c-3.947-6.58-47.367-68.42-47.367-68.42l33.044-11.429z" fill="#000" opacity=".1"/><path d="M176.312 347.706l28.947 56.578s-6.579 27.631-17.105 30.263c-10.526 2.631-55.262-34.21-55.262-34.21l43.42-52.63z" fill="#333"/><path d="M176.312 347.706l28.947 56.578s-6.579 27.631-17.105 30.263c-10.526 2.631-55.262-34.21-55.262-34.21l43.42-52.63z" fill="#333" opacity=".1"/><path d="M529.451 485.514l8.55 35.272c.096.393.081.805-.042 1.19l-38.788 121.212a2.203 2.203 0 01-4.287-.423l-5.366-47.22a2.203 2.203 0 01.095-.93l35.602-109.264a2.203 2.203 0 014.236.163z" fill="#111"/><path fill="#F2F2F2" d="M526.306 488.493l7.894 30.263-34.21 110.524-7.894-34.21z"/><path d="M353.94 652.964c1.316 3.947 136.84-1.316 138.156-2.632a28.56 28.56 0 002.894-5.263c1.237-2.632 2.369-5.263 2.369-5.263l-5.263-42.605-134.208-4.763s-3.355 36.105-4.04 52.631c-.17 4.171-.17 7.105.093 7.895z" fill="#111"/><path fill="#000" opacity=".1" d="M474.991 602.965l2.631 36.841h-59.209v-36.841zM398.677 614.806l.353-.07-1.669 15.86h-32.894v-15.79zM353.94 652.964c1.316 3.947 136.84-1.316 138.156-2.632a28.56 28.56 0 002.894-5.263H353.848c-.17 4.171-.17 7.105.093 7.895z"/><path d="M213.97 335.924c.821 0 5.653-.854 7.469-2.24.709-.54 3.958-5.622 8.34-14.86 1.37-2.888 3.593-8.112 6.67-15.67 3.067 1.682 5.655 1.682 7.767 0 3.167-2.523.815-6.299 0-9.226-.815-2.928-.815-3.923-.948-5.362-.856-9.26 5.67-12.906 6.41-19.932 3.426-32.51-20.929-57.767-53.63-57.767-32.7 0-59.209 26.509-59.209 59.21 0 27.377 42.792 49.923 63.811 62.187 3.593 2.097 10.7 3.66 13.32 3.66z" fill="#B88777"/><path d="M192.102 322.707s-19.737 34.21-23.684 52.63c-3.947 18.421-59.21-36.841-59.21-36.841l-7.236-19.079s51.972-24.341 48.025-44.078c-3.947-19.736 42.105 47.368 42.105 47.368zM202.628 425.336l53.946 71.052 128.945 96.05s93.42 19.737 72.367 34.21c-21.052 14.474-81.577-13.157-81.577-13.157s-130.261-69.736-157.892-98.683c-27.631-28.946-78.946-77.63-78.946-77.63l63.157-11.842z" fill="#B88777"/><path d="M130.26 535.86l15.79 25 94.231-29.646c20.676-6.504 43.348-4.111 61.687 7.443 16.447 10.361 26.973 26.808 3.29 51.15-47.368 48.683-78.947 22.368-78.947 22.368S67.104 687.173 40.79 650.332c-26.316-36.841-27.631-55.262-27.631-55.262s101.314-63.157 117.103-59.21z" fill="#222"/><path d="M327.625 622.701s42.105 27.631-7.894 40.789c-50 13.157-86.84-5.263-86.84-5.263s-43.42 0-43.42-22.368 14.472-25 14.472-25l44.736 6.579s53.947-14.473 78.946 5.263z" fill="#111"/><path d="M249.173 245.29c3.097-1.411-8.98-31.621-10.791-34.423-3.795-5.867-10.16-12.003-19.204-16.646-4.602-2.363-17.918-7.86-23.13-7.788h-18.342c-4.92.071-11.726.745-16.435 2.17-9.784 2.957-15.862 8.065-22.387 15.934-4.88 5.886-9.775 11.834-13.438 18.546a65.079 65.079 0 00-7.714 31.887c-.041 2.85.327 5.692 1.092 8.438a46.822 46.822 0 003.317 7.284c5.7 11.196 9.085 25.182 2.665 35.982 11.152-4.555 22.186-10.528 29.542-20.067 3.291-4.268 5.872-9.264 10.258-12.395 4.386-3.132 11.532-3.403 14.346 1.193a12.857 12.857 0 011.45 6.022c.206 3.45 7.294 6.472 9.573 4.073 4.048-4.262 4.488-7.26 10.546-8.544 6.064-1.285 9.684 1.377 13.99 0 5.015-1.605 4.76-7.915 6.905-12.725 1.63-3.656-.775-22.515 9.841-18.941 10.617 3.573 14.819 1.41 17.916 0z" fill="#221F1F"/><path d="M97.272 313.176a15.616 15.616 0 018.128.02c8.446 2.268 27.38 8.271 31.44 17.405 5.263 11.842 23.683 30.263 23.683 30.263s25 25 19.737 42.104c-5.263 17.105-25 36.842-25 36.842s5.263 81.577-21.052 102.63c-26.315 21.052-36.841 6.578-36.841 26.315 0 19.736-81.578 81.577-97.367 43.42 0 0 7.895-71.051 5.263-96.05-2.594-24.64 1.203-178.366 92.009-202.949z" fill="#333"/><path d="M139.471 346.39s80.262 59.21 65.788 84.21c0 0-48.683 23.683-59.21 22.367-10.525-1.315-51.314-47.367-61.84-51.314-10.526-3.948-15.79-74.999 55.262-55.263z" fill="#333"/><path d="M96.894 195.74c3.87-10.633 10.548-13.738 22.368-9.436 11.82 4.302 23.463 18.012 19.593 28.645-1.053 2.894-3.13 4.875-5.835 6.14-.887 1.165-2.64 2.696-5.007 4.395-1.083 1.368-2.594 2.983-4.429 4.727a134.055 134.055 0 01-2.615 6.77l-.373.887-.174.407c-4.809 11.236-10.081 19.683-11.84 18.936-1.002-.425-.648-3.749.72-8.616-2.111 2.693-3.887 4.113-4.85 3.643-1.163-.567-.884-3.76.493-8.253-3.125 1.64-5.347 2.275-5.937 1.52-.777-.995 1.477-4.16 5.499-8.083-2.946.87-4.936 1.013-5.35.233-.85-1.599 5.212-6.51 13.797-11.28a60.898 60.898 0 012.671-4.111 58.252 58.252 0 01-10.16-2.671c-11.82-4.302-12.441-13.22-8.57-23.852zM158.671 270.923c4.102-8.387 8.707-14.151 10.76-13.237 2.08.925-2.113 8.946-7.017 17.35l-1.368 2.327c-5.447 9.194-5.207 16.962-7.477 15.951-.578-.257-.898-1.02-.982-2.175-2.663 5.792-5.447 9.448-7.113 8.907-.657-.214-1.071-1.059-1.255-2.388-.747 4.452-1.961 7.314-3.379 7.34-.882.015-1.723-1.07-2.45-2.958-1.859 5.443-3.998 8.915-5.61 8.602-1.134-.22-1.809-2.272-2-5.466-3.499 4.483-6.617 7.027-8.03 6.211-1.662-.959-.478-6.286 2.626-12.958-2.488 1.525-4.375 2.078-5.175 1.332-1.768-1.649 2.425-9.039 9.419-16.692l.589-.638c2.086-2.237 4.18-4.244 6.149-5.93.645-6.214 2.072-10.468 3.802-10.498 1.234-.022 2.39 2.112 3.263 5.585 1.592-.741 2.783-.903 3.376-.35 1.008.94.08 3.743-2.198 7.396a79.26 79.26 0 01.38 5.93l.018.857c.018 1.03.018 2.04 0 3.026.52-2.563 1.265-5.396 2.221-8.338l.136-.413c3.317-10.035 7.838-17.5 10.17-16.742 1.36.442 1.678 3.585 1.07 8.125l.075-.156z" fill="#221F1F"/><path d="M127.436 226.451c1.358.95 5.411-2.496 9.054-7.7l.397-.576c3.379-4.99 5.049-9.649 3.742-10.564-1.358-.95-5.411 2.497-9.054 7.7l-.397.576c-3.379 4.99-5.049 9.65-3.742 10.564z" fill="#000"/></g><path d="M744.2 200.8c44.8 47.9 81.4 110.7 70.2 163.9-11.2 53.2-70.1 96.7-120.1 97.1-50 .5-91-42.2-151.6-63.9-60.6-21.6-140.7-22.3-173.3-63.1-32.7-40.8-17.9-121.7 27.3-169.7 45.1-48 120.7-63 185.1-54.1 64.4 8.9 117.5 41.9 162.4 89.8z" fill="#111" fill-rule="nonzero"/><path d="M832.4 101.2c35.6 37.3 84.4 71.4 91.1 117.6 6.7 46.2-28.6 104.4-84.6 138.6-55.9 34.3-132.6 44.5-164.5 10.4-31.9-34-19.1-112.4-29.4-179.2-10.4-66.9-44-122.3-30-154.7 14-32.3 75.5-41.6 117.5-26 41.9 15.6 64.3 56 99.9 93.3z" fill="#444" fill-rule="nonzero"/><g fill-rule="nonzero"><path stroke="#FFF" stroke-width="2" fill="#000" d="M417 389h444V71H417z"/><path fill="#FFF" d="M416.802 93.942h444v-2h-444z"/><g transform="translate(426.43 75.418)"><circle fill="#EC4C47" cx="5.616" cy="8.825" r="5.616"/><circle fill="#F7D154" cx="24.872" cy="8.825" r="5.616"/><circle fill="#46B881" cx="44.127" cy="8.825" r="5.616"/><path d="M7.221 12.837a6.418 6.418 0 116.418-6.419 6.426 6.426 0 01-6.418 6.419zm0-11.232a4.814 4.814 0 100 9.627 4.814 4.814 0 000-9.627zM26.476 12.837a6.418 6.418 0 116.419-6.419 6.426 6.426 0 01-6.419 6.419zm0-11.232a4.814 4.814 0 100 9.627 4.814 4.814 0 000-9.627zM45.732 12.837a6.418 6.418 0 116.418-6.419 6.426 6.426 0 01-6.418 6.419zm0-11.232a4.814 4.814 0 100 9.627 4.814 4.814 0 000-9.627z" fill="#FFF"/></g></g><path fill="#333" fill-rule="nonzero" d="M443 179h108v176H443z"/><path stroke="#FFF" stroke-width="2" d="M449 173h107v174H449z"/><path fill="#1070CA" fill-rule="nonzero" d="M442 105h22v22h-22z"/><path stroke="#FFF" stroke-width="2" d="M447 102h20v20h-20z"/><path fill="#333" fill-rule="nonzero" d="M717 178h108v76H717z"/><path stroke="#FFF" stroke-width="2" d="M722 172h108v76H722z"/><path fill="#333" fill-rule="nonzero" d="M442 154h44v12h-44z"/><path stroke="#FFF" stroke-width="2" d="M446 152h42v10h-42z"/><path fill="#333" fill-rule="nonzero" d="M717 154h44v12h-44z"/><path stroke="#FFF" stroke-width="2" d="M721 152h42v10h-42z"/><path fill="#333" fill-rule="nonzero" d="M581 154h44v12h-44z"/><path stroke="#FFF" stroke-width="2" d="M585 152h42v10h-42z"/><path fill="#333" fill-rule="nonzero" d="M581 177h110v157H581z"/><path stroke="#FFF" stroke-width="2" d="M588 172h108v155H588z"/><path fill="#000" fill-rule="nonzero" d="M454 188h90v39h-90z"/><path stroke="#FFF" stroke-width="2" d="M458 184h89v39h-89z"/><g><path fill="#000" fill-rule="nonzero" d="M454 305h90v33h-90z"/><path stroke="#FFF" stroke-width="2" d="M458 302h89v33h-89z"/></g><g><path fill="#000" fill-rule="nonzero" d="M594 248h90v39h-90z"/><path stroke="#FFF" stroke-width="2" d="M598 244h89v39h-89z"/></g><g><path fill="#333" fill-rule="nonzero" d="M473 109h44v12h-44z"/><path stroke="#FFF" stroke-width="2" d="M477 107h42v10h-42z"/></g><g transform="translate(753 102)"><rect fill="#735DD0" fill-rule="nonzero" y="3" width="22" height="22" rx="11"/><rect stroke="#FFF" stroke-width="2" x="5" width="20" height="20" rx="10"/></g><g><path fill="#333" fill-rule="nonzero" d="M784 110h44v12h-44z"/><path stroke="#FFF" stroke-width="2" d="M788 108h42v10h-42z"/></g><g><path fill="#000" fill-rule="nonzero" d="M454 240h90v53h-90z"/><path stroke="#FFF" stroke-width="2" d="M458 236h89v53h-89z"/></g><g><path fill="#000" fill-rule="nonzero" d="M594 187h90v50h-90z"/><path stroke="#FFF" stroke-width="2" d="M598 184h89v50h-89z"/></g><g><path fill="#000" fill-rule="nonzero" d="M707 200h90v33h-90z"/><path stroke="#FFF" stroke-width="2" d="M712 196h89v33h-89z"/></g></g></svg>