<svg width="90" height="80" xmlns="http://www.w3.org/2000/svg"><g fill="#61DAFB" fill-rule="nonzero"><circle cx="44.651" cy="40" r="8.372"/><path d="M75.536 26.547c-1.57-.572-3.21-1.144-4.922-1.645a71.98 71.98 0 001.07-5.08c1.498-9.446-.142-16.101-4.707-18.677C65.622.358 64.124 0 62.412 0c-4.993 0-11.341 3.72-17.76 9.946C38.231 3.721 31.882 0 26.89 0c-1.712 0-3.21.358-4.565 1.145-4.565 2.647-6.206 9.302-4.708 18.676a71.98 71.98 0 001.07 5.08c-1.712.502-3.353 1.002-4.922 1.646C4.85 29.982 0 34.705 0 40s4.922 10.018 13.766 13.453c1.57.572 3.21 1.144 4.922 1.645a71.98 71.98 0 00-1.07 5.08c-1.498 9.446.143 16.101 4.708 18.677C23.68 79.642 25.179 80 26.89 80c5.064 0 11.412-3.72 17.76-9.946C51.071 76.279 57.42 80 62.411 80c1.713 0 3.21-.358 4.566-1.145 4.565-2.647 6.205-9.302 4.707-18.676a71.98 71.98 0 00-1.07-5.08c1.712-.502 3.353-1.002 4.922-1.646C84.452 50.018 89.302 45.295 89.302 40s-4.85-10.018-13.766-13.453zM64.98 4.723c2.924 1.717 3.923 7.012 2.71 14.526-.214 1.502-.57 3.077-.999 4.722-3.709-.858-7.632-1.43-11.769-1.789a103.188 103.188 0 00-7.418-9.302c5.279-5.223 10.628-8.801 14.98-8.801.926 0 1.782.214 2.496.644zm-7.99 42.433c-1.283 2.29-2.78 4.58-4.35 6.869-2.64.215-5.278.286-7.989.286-2.782 0-5.42-.071-7.989-.286a90.194 90.194 0 01-4.28-6.87A115.412 115.412 0 0128.603 40a115.412 115.412 0 013.78-7.156c1.285-2.29 2.783-4.58 4.352-6.869 2.639-.215 5.278-.286 7.988-.286 2.782 0 5.421.071 7.99.286a90.194 90.194 0 014.279 6.87A115.412 115.412 0 0160.77 40c-1.212 2.361-2.425 4.723-3.78 7.156zm5.921-2.362c1.07 2.505 1.926 4.938 2.71 7.37-2.425.573-4.992 1.002-7.703 1.36.856-1.36 1.783-2.79 2.568-4.293.856-1.503 1.64-3.006 2.425-4.437zm-18.26 19.392c-1.712-1.86-3.352-3.864-4.921-5.94 1.64.072 3.28.144 4.921.144 1.64 0 3.281-.072 4.922-.143-1.57 2.075-3.21 4.079-4.922 5.939zM31.384 53.453c-2.71-.358-5.278-.788-7.703-1.36.784-2.361 1.64-4.866 2.71-7.37.785 1.43 1.57 2.934 2.425 4.365.856 1.574 1.712 2.933 2.568 4.365zm-4.993-18.247c-1.07-2.505-1.926-4.938-2.71-7.37 2.425-.573 4.993-1.002 7.703-1.36-.856 1.36-1.783 2.79-2.568 4.293-.856 1.503-1.64 3.006-2.425 4.437zm18.26-19.392c1.712 1.86 3.353 3.864 4.922 5.94-1.64-.072-3.281-.144-4.922-.144-1.64 0-3.28.072-4.921.143 1.569-2.075 3.21-4.079 4.921-5.939zm15.835 15.027l-2.568-4.294c2.71.358 5.278.788 7.704 1.36-.785 2.361-1.641 4.866-2.71 7.37-.786-1.502-1.57-3.005-2.426-4.436zM21.612 19.249c-1.212-7.514-.214-12.809 2.71-14.526.714-.43 1.57-.644 2.497-.644 4.28 0 9.63 3.506 14.98 8.801-2.497 2.72-4.994 5.868-7.419 9.302-4.137.358-8.06 1.002-11.77 1.79-.427-1.646-.712-3.22-.998-4.723zM3.994 40c0-3.363 4.066-6.941 11.199-9.589 1.426-.572 2.996-1.073 4.565-1.502a104.504 104.504 0 004.28 11.163c-1.712 3.792-3.21 7.513-4.28 11.09C9.915 48.302 3.994 44.008 3.994 40zm20.329 35.277c-2.925-1.717-3.923-7.012-2.71-14.526.213-1.502.57-3.077.998-4.722 3.709.858 7.632 1.43 11.769 1.789a103.188 103.188 0 007.418 9.302C36.52 72.343 31.17 75.92 26.82 75.92c-.927 0-1.783-.214-2.496-.644zM67.69 60.751c1.213 7.514.214 12.809-2.71 14.526-.714.43-1.57.644-2.497.644-4.28 0-9.63-3.506-14.979-8.801 2.497-2.72 4.993-5.868 7.418-9.302 4.137-.358 8.06-1.002 11.77-1.79.427 1.646.713 3.22.998 4.723zm6.42-11.162c-1.427.572-2.996 1.073-4.565 1.502a104.504 104.504 0 00-4.28-11.163c1.712-3.792 3.21-7.513 4.28-11.09C79.388 31.698 85.308 35.992 85.308 40c0 3.363-4.137 6.941-11.198 9.589z"/></g></svg>